<svg width="32" height="32" viewBox="0 0 32 32" fill="none" xmlns="http://www.w3.org/2000/svg">
<path d="M28.1 30.8H19.95C19.35 30.8 18.8 30.3 18.8 29.65V26.9C18.8 26.15 18.5 25.45 18 24.9C17.5 24.4 16.8 24.1 16.1 24.1C15.35 24.1 14.7 24.35 14.15 24.9C13.55 25.5 13.2 26.25 13.2 27.1V29.7C13.2 30.3 12.7 30.85 12.05 30.85H3.89998C2.19998 30.85 0.849976 29.5 0.849976 27.8V4.3C0.849976 2.6 2.19998 1.25 3.89998 1.25H28.05C29.75 1.25 31.1 2.6 31.1 4.3V27.8C31.15 29.45 29.75 30.8 28.1 30.8ZM21.05 28.55H28.05C28.5 28.55 28.85 28.2 28.85 27.75V4.25C28.85 3.8 28.5 3.45 28.05 3.45H3.89998C3.49998 3.45 3.14998 3.8 3.14998 4.25V27.75C3.14998 28.2 3.49998 28.55 3.94998 28.55H10.95V27.1C10.95 25.7 11.55 24.3 12.55 23.3C13.55 22.35 14.8 21.85 16.1 21.85C17.4 21.9 18.6 22.4 19.55 23.35C20.5 24.3 21.05 25.55 21.05 26.9V28.55Z" fill="#2BAE89"/>
<path d="M10.7 8.8498H8.69999C8.09999 8.8498 7.54999 8.3498 7.54999 7.6998C7.54999 7.0498 8.04999 6.5498 8.69999 6.5498H10.7C11.3 6.5498 11.85 7.0498 11.85 7.6998C11.85 8.3498 11.3 8.8498 10.7 8.8498Z" fill="#2BAE89"/>
<path d="M23.5 8.8498H21.5C20.9 8.8498 20.35 8.3498 20.35 7.6998C20.35 7.0498 20.85 6.5498 21.5 6.5498H23.5C24.1 6.5498 24.65 7.0498 24.65 7.6998C24.65 8.3498 24.15 8.8498 23.5 8.8498Z" fill="#2BAE89"/>
<path d="M10.7 14.3996H8.69999C8.09999 14.3996 7.54999 13.8996 7.54999 13.2496C7.54999 12.5996 8.04999 12.0996 8.69999 12.0996H10.7C11.3 12.0996 11.85 12.5996 11.85 13.2496C11.85 13.8996 11.3 14.3996 10.7 14.3996Z" fill="#2BAE89"/>
<path d="M23.5 14.3996H21.5C20.9 14.3996 20.35 13.8996 20.35 13.2496C20.35 12.5996 20.85 12.0996 21.5 12.0996H23.5C24.1 12.0996 24.65 12.5996 24.65 13.2496C24.65 13.8996 24.15 14.3996 23.5 14.3996Z" fill="#2BAE89"/>
<path d="M10.7 19.9504H8.69999C8.09999 19.9504 7.54999 19.4504 7.54999 18.8004C7.54999 18.1504 8.04999 17.6504 8.69999 17.6504H10.7C11.3 17.6504 11.85 18.1504 11.85 18.8004C11.85 19.4504 11.3 19.9504 10.7 19.9504Z" fill="#2BAE89"/>
<path d="M23.5 19.9504H21.5C20.9 19.9504 20.35 19.4504 20.35 18.8004C20.35 18.1504 20.85 17.6504 21.5 17.6504H23.5C24.1 17.6504 24.65 18.1504 24.65 18.8004C24.65 19.4504 24.15 19.9504 23.5 19.9504Z" fill="#2BAE89"/>
</svg>
