<svg width="16" height="16" viewBox="0 0 16 16" fill="none" xmlns="http://www.w3.org/2000/svg">
<path d="M2.29647 5.15336L2.29645 5.15338L2.30067 5.15751L7.65067 10.3825L8.00169 10.7253L8.35107 10.3808L13.7011 5.10584L13.7011 5.10585L13.7036 5.10336C13.7221 5.08481 13.7386 5.08105 13.75 5.08105C13.7614 5.08105 13.7779 5.08481 13.7965 5.10336L14.1485 4.75138L13.7965 5.10336C13.815 5.12191 13.8188 5.1384 13.8188 5.1498C13.8188 5.16101 13.8151 5.17715 13.7974 5.19532L8.04958 10.8432L8.04957 10.8432L8.04647 10.8463C8.01606 10.8767 7.99598 10.8919 7.98521 10.899C7.97758 10.8982 7.97269 10.8966 7.96865 10.8951C7.96238 10.8927 7.94957 10.8869 7.92884 10.8719L2.20265 5.24531C2.1849 5.22715 2.18127 5.21101 2.18127 5.1998C2.18127 5.1884 2.18503 5.17191 2.20358 5.15336C2.22213 5.13481 2.23862 5.13105 2.25002 5.13105C2.26143 5.13105 2.27792 5.13481 2.29647 5.15336Z" fill="#6B7280" stroke="#6B7280"/>
</svg>
