<svg width="65" height="64" viewBox="0 0 65 64" fill="none" xmlns="http://www.w3.org/2000/svg">
<circle cx="1.39737" cy="62.6026" r="1.39737" transform="rotate(-90 1.39737 62.6026)" fill="#2BAE89"/>
<circle cx="1.39737" cy="25.9913" r="1.39737" transform="rotate(-90 1.39737 25.9913)" fill="#2BAE89"/>
<circle cx="13.6947" cy="62.6026" r="1.39737" transform="rotate(-90 13.6947 62.6026)" fill="#2BAE89"/>
<circle cx="13.6947" cy="25.9913" r="1.39737" transform="rotate(-90 13.6947 25.9913)" fill="#2BAE89"/>
<circle cx="25.9911" cy="62.6026" r="1.39737" transform="rotate(-90 25.9911 62.6026)" fill="#2BAE89"/>
<circle cx="25.9911" cy="25.9913" r="1.39737" transform="rotate(-90 25.9911 25.9913)" fill="#2BAE89"/>
<circle cx="38.2884" cy="62.6026" r="1.39737" transform="rotate(-90 38.2884 62.6026)" fill="#2BAE89"/>
<circle cx="38.2884" cy="25.9913" r="1.39737" transform="rotate(-90 38.2884 25.9913)" fill="#2BAE89"/>
<circle cx="1.39737" cy="50.3058" r="1.39737" transform="rotate(-90 1.39737 50.3058)" fill="#2BAE89"/>
<circle cx="13.6947" cy="50.3058" r="1.39737" transform="rotate(-90 13.6947 50.3058)" fill="#2BAE89"/>
<circle cx="25.9911" cy="50.3058" r="1.39737" transform="rotate(-90 25.9911 50.3058)" fill="#2BAE89"/>
<circle cx="38.2884" cy="50.3058" r="1.39737" transform="rotate(-90 38.2884 50.3058)" fill="#2BAE89"/>
<circle cx="1.39737" cy="38.0086" r="1.39737" transform="rotate(-90 1.39737 38.0086)" fill="#2BAE89"/>
<circle cx="13.6947" cy="38.0086" r="1.39737" transform="rotate(-90 13.6947 38.0086)" fill="#2BAE89"/>
<circle cx="25.9911" cy="38.0086" r="1.39737" transform="rotate(-90 25.9911 38.0086)" fill="#2BAE89"/>
<circle cx="38.2884" cy="38.0086" r="1.39737" transform="rotate(-90 38.2884 38.0086)" fill="#2BAE89"/>
</svg>
