<svg width="32" height="32" viewBox="0 0 32 32" fill="none" xmlns="http://www.w3.org/2000/svg">
<path d="M29.45 9.7L17.9 1.6C16.75 0.8 15.25 0.8 14.1 1.6L2.55002 9.7C1.65002 10.3 1.15002 11.35 1.15002 12.4V27.75C1.15002 29.55 2.65002 31.05 4.45002 31.05H27.6C29.4 31.05 30.9 29.55 30.9 27.75V12.4C30.9 11.3 30.35 10.3 29.45 9.7ZM20.55 28.75H11.45V23C11.45 22.65 11.6 22.35 11.9 22.15L15.4 19.7C15.75 19.45 16.25 19.45 16.6 19.7L20.1 22.15C20.4 22.35 20.55 22.65 20.55 23V28.75ZM28.65 27.7C28.65 28.3 28.2 28.75 27.6 28.75H22.8V23C22.8 21.95 22.3 20.9 21.4 20.3L17.9 17.85C16.75 17.05 15.25 17.05 14.1 17.85L10.6 20.3C9.70003 20.9 9.20002 21.95 9.20002 23V28.75H4.40002C3.80002 28.75 3.35002 28.3 3.35002 27.7V12.4C3.35002 12.05 3.50002 11.75 3.80002 11.55L15.4 3.4C15.6 3.25 15.8 3.2 16 3.2C16.2 3.2 16.4 3.25 16.6 3.4L28.2 11.5C28.5 11.7 28.65 12 28.65 12.35V27.7Z" fill="#2BAE89"/>
</svg>
