<svg width="36" height="36" viewBox="0 0 36 36" fill="none" xmlns="http://www.w3.org/2000/svg">
<path d="M20.3062 9.95632C19.8 9.45007 19.0125 9.50632 18.5062 9.95632L15.6937 12.8251C15.1875 13.3313 15.1875 14.1188 15.6937 14.5688L17.6062 16.5376L15.6937 18.5626C15.1875 19.0688 15.2437 19.8563 15.6937 20.3626C15.9187 20.5876 16.2562 20.7001 16.5937 20.7001C16.9312 20.7001 17.2687 20.5876 17.4937 20.3063L20.3062 17.4376C20.8125 16.9313 20.8125 16.1438 20.3062 15.6938L18.3937 13.7251L20.3062 11.7563C20.8125 11.2501 20.7562 10.4063 20.3062 9.95632Z" fill="white"/>
<path d="M30.9937 14.0062C30.9937 6.8062 25.1437 1.01245 18 1.01245C10.8562 1.01245 5.00623 6.8062 5.00623 14.0062C5.00623 19.0687 7.93123 23.5125 12.2062 25.65V32.0625C12.2062 33.6937 13.5562 34.9875 15.1312 34.9875H21.15C22.7812 34.9875 24.075 33.6375 24.075 32.0625V25.4812C28.1812 23.2875 30.9937 18.9562 30.9937 14.0062ZM21.5437 26.55V32.0625C21.5437 32.2875 21.375 32.4562 21.15 32.4562H15.1312C14.9062 32.4562 14.7375 32.2875 14.7375 32.0625V26.55C15.75 26.8312 16.875 27 18 27C19.125 27 20.25 26.8312 21.3187 26.55H21.5437ZM18 24.4687C12.2062 24.4687 7.53748 19.7437 7.53748 14.0062C7.53748 8.2687 12.2062 3.5437 18 3.5437C23.7937 3.5437 28.4625 8.2687 28.4625 14.0062C28.4625 19.7437 23.7937 24.4687 18 24.4687Z" fill="white"/>
</svg>
