<svg width="32" height="32" viewBox="0 0 32 32" fill="none" xmlns="http://www.w3.org/2000/svg">
<path d="M28 4.80005H3.99998C2.29998 4.80005 0.849976 6.20005 0.849976 7.95005V24.15C0.849976 25.85 2.24998 27.3 3.99998 27.3H28C29.7 27.3 31.15 25.9 31.15 24.15V7.90005C31.15 6.20005 29.7 4.80005 28 4.80005ZM28 7.05005C28.05 7.05005 28.1 7.05005 28.15 7.05005L16 14.85L3.84998 7.05005C3.89998 7.05005 3.94998 7.05005 3.99998 7.05005H28ZM28 24.9501H3.99998C3.49998 24.9501 3.09998 24.55 3.09998 24.05V9.25005L14.8 16.75C15.15 17 15.55 17.1 15.95 17.1C16.35 17.1 16.75 17 17.1 16.75L28.8 9.25005V24.1C28.9 24.6 28.5 24.9501 28 24.9501Z" fill="#2BAE89"/>
</svg>
