<svg width="22" height="22" viewBox="0 0 22 22" fill="none" xmlns="http://www.w3.org/2000/svg">
<path d="M16.7062 20.9342C13.9218 20.9342 9.96872 18.9405 6.32497 15.503C1.37497 10.7592 -0.721905 5.46546 1.4781 3.12796C1.58122 3.02483 1.71872 2.92171 1.85622 2.85296L4.6406 1.27171C5.36247 0.859207 6.25622 1.06546 6.73747 1.75296L8.7656 4.64046C9.00622 4.98421 9.10935 5.39671 9.00622 5.80921C8.93747 6.18733 8.69684 6.53108 8.35309 6.77171L7.14997 7.56233C8.0781 8.90296 10.5875 12.2373 14.575 14.6092C14.6093 14.6436 14.6437 14.6092 14.6437 14.6092L15.5031 13.4405C15.9843 12.7873 16.9125 12.6155 17.6343 13.0623L20.6593 14.9873C21.3812 15.4342 21.5875 16.3623 21.1406 17.0842L19.4906 19.7311C19.3875 19.8686 19.2843 20.0061 19.1812 20.1092C18.5625 20.6592 17.7031 20.9342 16.7062 20.9342ZM5.43122 2.61233C5.43122 2.61233 5.39685 2.61233 5.43122 2.61233L2.61247 4.19358C1.30622 5.60296 2.92185 10.1061 7.42497 14.3686C11.9968 18.6998 16.7062 20.2467 18.2187 18.9405L19.8687 16.2936L16.8437 14.3686C16.8093 14.3686 16.775 14.3686 16.775 14.3686L15.9156 15.5373C15.4343 16.1905 14.5062 16.3623 13.8187 15.9498C9.52184 13.3717 6.8406 9.79671 5.8781 8.38733C5.63747 8.04358 5.56872 7.63108 5.63747 7.25296C5.70622 6.84046 5.94684 6.49671 6.29059 6.29046L7.49372 5.49983L5.49997 2.64671C5.4656 2.64671 5.43122 2.61233 5.43122 2.61233Z" fill="#111928"/>
</svg>
