<svg width="36" height="36" viewBox="0 0 36 36" fill="none" xmlns="http://www.w3.org/2000/svg">
<path d="M33.9188 27.3938L27.225 20.7563C26.55 20.0813 25.5938 19.6876 24.6375 19.6876C23.7375 19.6876 22.95 20.0251 22.275 20.5876L18.1125 16.4251L22.4438 12.1501C22.95 11.6438 23.1188 10.9688 23.0063 10.2938C22.8938 9.61881 22.4438 9.05631 21.7688 8.77506L3.88125 1.12506C3.09375 0.84381 2.25 1.01256 1.63125 1.57506C1.0125 2.19381 0.84375 3.03756 1.18125 3.82506L8.775 21.6001C9.05625 22.2188 9.61875 22.6688 10.2937 22.7813C10.4062 22.7813 10.575 22.8376 10.6875 22.8376C11.25 22.8376 11.7563 22.6126 12.15 22.2188L16.3125 18.1126L20.475 22.2751C19.2938 23.6813 19.35 25.8751 20.7 27.2251L27.3938 33.9188C28.0688 34.5938 29.025 34.9876 29.9813 34.9876C30.9375 34.9876 31.8938 34.5938 32.5688 33.9188L33.9188 32.5688C35.325 31.1626 35.325 28.8563 33.9188 27.3938ZM10.8562 19.9688L3.99375 3.93756L20.0813 10.8001L10.8562 19.9688ZM32.1187 30.8251L30.7688 32.1751C30.3188 32.6251 29.5875 32.6251 29.1938 32.1751L22.5 25.4813C22.05 25.0313 22.05 24.3563 22.5 23.9063L23.85 22.5563C24.075 22.3313 24.3563 22.2188 24.6375 22.2188C24.9188 22.2188 25.2 22.3313 25.425 22.5563L32.1187 29.2501C32.5688 29.6438 32.5688 30.3751 32.1187 30.8251Z" fill="white"/>
</svg>
