<svg width="36" height="36" viewBox="0 0 36 36" fill="none" xmlns="http://www.w3.org/2000/svg">
<path d="M30.4313 34.9875C29.1938 34.9875 28.0688 34.4812 27.1688 33.6375L11.1375 17.55C8.32501 18.1687 5.45626 17.325 3.43126 15.3C1.35001 13.1625 0.506262 10.0687 1.29376 7.19996C1.40626 6.74996 1.74376 6.41246 2.19376 6.29996C2.64376 6.18746 3.09376 6.29996 3.43126 6.63746L6.91876 10.125L9.45001 9.44996L10.125 6.91871L6.58126 3.37496C6.24376 3.03746 6.13126 2.58746 6.24376 2.13746C6.35626 1.68746 6.69376 1.34996 7.14376 1.23746C10.0125 0.449957 13.1063 1.29371 15.2438 3.37496C17.2125 5.34371 18.0563 8.09996 17.55 10.8L33.6938 27.0562C35.4938 28.8562 35.4938 31.7812 33.6938 33.5812C32.7938 34.5375 31.6125 34.9875 30.4313 34.9875ZM11.5313 14.85C11.8688 14.85 12.2063 14.9625 12.4313 15.2437L28.9688 31.8375C29.7563 32.625 31.1063 32.625 31.8938 31.8375C32.6813 31.05 32.6813 29.7 31.8938 28.8562L15.3 12.2625C14.9625 11.925 14.7938 11.4187 14.9063 10.9687C15.4688 8.94371 14.9063 6.74996 13.4438 5.23121C12.6 4.38746 11.5313 3.82496 10.35 3.59996L12.375 5.62496C12.7125 5.96246 12.825 6.41246 12.7125 6.86246L11.6438 10.8C11.5313 11.25 11.1938 11.5875 10.7438 11.7L6.80626 12.7687C6.35626 12.8812 5.90626 12.7687 5.56876 12.4312L3.60001 10.4062C3.82501 11.5312 4.38751 12.6562 5.23126 13.5C6.80626 15.075 9.05626 15.6375 11.1375 14.9062C11.25 14.9062 11.4188 14.85 11.5313 14.85Z" fill="white"/>
</svg>
