<svg width="32" height="32" viewBox="0 0 32 32" fill="none" xmlns="http://www.w3.org/2000/svg">
<g clip-path="url(#clip0_63_1599)">
<path d="M24.3 31.1499C22.95 31.1499 21.4 30.7999 19.7 30.1499C16.3 28.7999 12.55 26.1999 9.19997 22.8499C5.84997 19.4999 3.24997 15.7499 1.89997 12.2999C0.39997 8.59994 0.54997 5.54994 2.29997 3.84994C2.34997 3.79994 2.44997 3.74994 2.49997 3.69994L6.69997 1.19994C7.74997 0.599942 9.09997 0.899942 9.79997 1.89994L12.75 6.29994C13.45 7.34994 13.15 8.74994 12.15 9.44994L10.35 10.6999C11.65 12.7999 15.35 17.9499 21.25 21.6499L22.35 20.0499C23.2 18.8499 24.55 18.4999 25.65 19.2499L30.05 22.1999C31.05 22.8999 31.35 24.2499 30.75 25.2999L28.25 29.4999C28.2 29.5999 28.15 29.6499 28.1 29.6999C27.2 30.6499 25.9 31.1499 24.3 31.1499ZM3.79997 5.54994C2.84997 6.59994 2.89997 8.74994 3.99997 11.4999C5.24997 14.6499 7.64997 18.0999 10.8 21.2499C13.9 24.3499 17.4 26.7499 20.5 27.9999C23.2 29.0999 25.35 29.1499 26.45 28.1999L28.85 24.0999C28.85 24.0499 28.85 24.0499 28.85 23.9999L24.45 21.0499C24.45 21.0499 24.35 21.0999 24.25 21.2499L23.15 22.8499C22.45 23.8499 21.1 24.1499 20.1 23.4999C13.8 19.5999 9.89997 14.1499 8.49997 11.9499C7.84997 10.8999 8.09997 9.54994 9.09997 8.84994L10.9 7.59994V7.54994L7.94997 3.14994C7.94997 3.09994 7.89997 3.09994 7.84997 3.14994L3.79997 5.54994Z" fill="#2BAE89"/>
<path d="M29.3 14.2499C28.7 14.2499 28.25 13.7999 28.2 13.1999C27.8 8.14991 23.65 4.09991 18.55 3.74991C17.95 3.69991 17.45 3.19991 17.5 2.54991C17.55 1.94991 18.05 1.44991 18.7 1.49991C24.9 1.89991 29.95 6.79991 30.45 12.9999C30.5 13.5999 30.05 14.1499 29.4 14.1999C29.4 14.2499 29.35 14.2499 29.3 14.2499Z" fill="#2BAE89"/>
<path d="M24.35 14.6999C23.8 14.6999 23.3 14.2999 23.25 13.6999C22.95 10.9999 20.85 8.89994 18.15 8.54994C17.55 8.49994 17.1 7.89994 17.15 7.29994C17.2 6.69994 17.8 6.24994 18.4 6.29994C22.15 6.74994 25.05 9.64994 25.5 13.3999C25.55 13.9999 25.15 14.5499 24.5 14.6499C24.4 14.6999 24.35 14.6999 24.35 14.6999Z" fill="#2BAE89"/>
</g>
<defs>
<clipPath id="clip0_63_1599">
<rect width="32" height="32" fill="white"/>
</clipPath>
</defs>
</svg>
