<svg width="22" height="22" viewBox="0 0 22 22" fill="none" xmlns="http://www.w3.org/2000/svg">
<path d="M19.25 3.2998H2.74998C1.58123 3.2998 0.584351 4.2623 0.584351 5.46543V16.6029C0.584351 17.7717 1.54685 18.7686 2.74998 18.7686H19.25C20.4187 18.7686 21.4156 17.8061 21.4156 16.6029V5.43105C21.4156 4.2623 20.4187 3.2998 19.25 3.2998ZM19.25 4.84668C19.2843 4.84668 19.3187 4.84668 19.3531 4.84668L11 10.2092L2.64685 4.84668C2.68123 4.84668 2.7156 4.84668 2.74998 4.84668H19.25ZM19.25 17.1529H2.74998C2.40623 17.1529 2.13123 16.8779 2.13123 16.5342V6.35918L10.175 11.5154C10.4156 11.6873 10.6906 11.7561 10.9656 11.7561C11.2406 11.7561 11.5156 11.6873 11.7562 11.5154L19.8 6.35918V16.5686C19.8687 16.9123 19.5937 17.1529 19.25 17.1529Z" fill="white"/>
</svg>
