<svg width="227" height="215" viewBox="0 0 227 215" fill="none" xmlns="http://www.w3.org/2000/svg">
<path d="M65.4167 65.4167H162.083M65.4167 113.75H137.917M186.25 5C195.864 5 205.084 8.81919 211.883 15.6174C218.681 22.4156 222.5 31.6359 222.5 41.25V137.917C222.5 147.531 218.681 156.751 211.883 163.549C205.084 170.347 195.864 174.167 186.25 174.167H125.833L65.4167 210.417V174.167H41.25C31.6359 174.167 22.4156 170.347 15.6174 163.549C8.81919 156.751 5 147.531 5 137.917V41.25C5 31.6359 8.81919 22.4156 15.6174 15.6174C22.4156 8.81919 31.6359 5 41.25 5H186.25Z" stroke="white" stroke-width="9" stroke-linecap="round" stroke-linejoin="round"/>
</svg>
