<svg width="32" height="32" viewBox="0 0 32 32" fill="none" xmlns="http://www.w3.org/2000/svg">
<path d="M24.6001 16.9998C23.1001 15.1998 21.2001 13.9498 19.1001 13.2998C21.2001 12.1998 22.6001 9.9998 22.6001 7.4498C22.6001 3.7998 19.6501 0.799805 15.9501 0.799805C12.2501 0.799805 9.3501 3.8498 9.3501 7.4998C9.3501 9.9998 10.7501 12.1998 12.8501 13.3498C10.7501 13.9998 8.9001 15.2498 7.3501 17.0498C5.1501 19.6498 3.9001 23.2498 3.8501 27.1998C3.8501 27.6498 4.1001 28.0498 4.4501 28.1998C5.8001 28.8998 10.7001 31.0998 15.9501 31.0998C21.6501 31.0998 26.2001 28.8498 27.5001 28.1498C27.8501 27.9498 28.1001 27.5498 28.1001 27.1498C28.0501 23.2498 26.8001 19.6498 24.6001 16.9998ZM16.0001 3.1498C18.4001 3.1498 20.4001 5.0998 20.4001 7.5498C20.4001 9.9998 18.4501 11.9498 16.0001 11.9498C13.5501 11.9498 11.6001 9.9998 11.6001 7.5498C11.6001 5.0998 13.6001 3.1498 16.0001 3.1498ZM16.0001 28.8998C11.8501 28.8998 7.8001 27.2998 6.1501 26.4998C6.3501 23.3498 7.3501 20.5498 9.1001 18.4498C10.9001 16.2998 13.3501 15.0998 16.0001 15.0998C18.6501 15.0998 21.1001 16.2998 22.9001 18.4498C24.6501 20.4998 25.7001 23.3498 25.8501 26.4998C24.3001 27.2998 20.5001 28.8998 16.0001 28.8998Z" fill="#2BAE89"/>
</svg>
