<svg width="32" height="28" viewBox="0 0 32 28" fill="none" xmlns="http://www.w3.org/2000/svg">
<path d="M30.6001 9.25L27.5501 7.35C27.5501 5.65 26.1501 4.2 24.4001 4.2H22.5001C22.4501 4.2 22.4501 4.15 22.4001 4.15L16.6001 0.5C16.2501 0.25 15.7501 0.25 15.4001 0.5L9.5001 4.2H7.6001C5.9001 4.2 4.4501 5.6 4.4501 7.35L1.4001 9.25C1.0501 9.45 0.850098 9.8 0.850098 10.2V24.4C0.850098 26.25 2.3501 27.7 4.1501 27.7H27.7501C29.6001 27.7 31.0501 26.2 31.0501 24.4V10.2C31.1501 9.8 30.9501 9.45 30.6001 9.25ZM28.9001 10.8V12.1L27.5501 12.6V10L28.9001 10.8ZM16.0001 2.75L18.3001 4.2H13.7501L16.0001 2.75ZM7.6001 6.45H9.8001H24.4001C24.9001 6.45 25.3001 6.85 25.3001 7.35V13.5L15.8001 17L6.7001 13.7V7.3C6.7001 6.85 7.1001 6.45 7.6001 6.45ZM4.4501 10V12.85L3.1001 12.35V10.85L4.4501 10ZM27.8001 25.45H4.2001C3.6001 25.45 3.1501 24.95 3.1501 24.4V14.75L15.4501 19.2C15.5501 19.25 15.7001 19.25 15.8501 19.25C16.0001 19.25 16.1001 19.25 16.2501 19.2L28.9001 14.5V24.35C28.9001 24.95 28.4001 25.45 27.8001 25.45Z" fill="#2BAE89"/>
<path d="M11.65 10.7004H20.35C20.95 10.7004 21.5 10.2004 21.5 9.55039C21.5 8.90039 21 8.40039 20.35 8.40039H11.65C11.05 8.40039 10.5 8.90039 10.5 9.55039C10.5 10.2004 11.05 10.7004 11.65 10.7004Z" fill="#2BAE89"/>
<path d="M11.65 14.3498H20.35C20.95 14.3498 21.5 13.8498 21.5 13.1998C21.5 12.5498 21 12.0498 20.35 12.0498H11.65C11.05 12.0498 10.5 12.5498 10.5 13.1998C10.5 13.8498 11.05 14.3498 11.65 14.3498Z" fill="#2BAE89"/>
</svg>
