<svg width="36" height="36" viewBox="0 0 36 36" fill="none" xmlns="http://www.w3.org/2000/svg">
<path d="M34.65 1.3499C34.1437 0.843652 33.3563 0.843652 32.85 1.3499L21.2625 12.9374C18.1687 10.6312 13.95 10.5749 10.8 12.8812L2.41875 19.0687C1.575 19.6874 1.06875 20.5874 1.0125 21.5999C0.95625 22.6124 1.29375 23.6249 2.025 24.3562L11.7 34.0312C12.375 34.7062 13.2188 35.0437 14.175 35.0437C14.2875 35.0437 14.3438 35.0437 14.4563 35.0437C15.4688 34.9874 16.425 34.4249 16.9875 33.6374L23.1187 25.2562C25.4812 22.0499 25.3687 17.8312 23.0625 14.7937L34.65 3.1499C35.1562 2.64365 35.1562 1.85615 34.65 1.3499ZM16.0312 13.7249C17.6625 13.7249 19.2375 14.3437 20.475 15.5812C22.6688 17.7749 22.95 21.2062 21.0938 23.7374L21.0375 23.8499L12.2063 15.0187L12.3188 14.9624C13.3875 14.1187 14.7375 13.7249 16.0312 13.7249ZM14.9062 32.1187C14.6813 32.3999 14.4 32.5124 14.2312 32.5124C14.0625 32.5124 13.7812 32.5124 13.5 32.2312L3.76875 22.5562C3.4875 22.2749 3.4875 21.9937 3.4875 21.8249C3.4875 21.6562 3.54375 21.3749 3.88125 21.1499L10.0688 16.5937L19.4625 25.8749L14.9062 32.1187Z" fill="white"/>
</svg>
