<svg width="20" height="20" viewBox="0 0 20 20" fill="none" xmlns="http://www.w3.org/2000/svg">
<path d="M9.9697 6.09064H9.93939C9.57576 6.09064 9.24242 6.39367 9.24242 6.78761C9.24242 7.18155 9.54545 7.48458 9.93939 7.48458H9.9697C10.3333 7.48458 10.6667 7.18155 10.6667 6.78761C10.6667 6.39367 10.3636 6.09064 9.9697 6.09064Z" fill="#2BAE89"/>
<path d="M9.9697 8.48444C9.60606 8.48444 9.27273 8.78747 9.27273 9.18141V13.8481C9.27273 14.2117 9.57576 14.545 9.9697 14.545C10.3333 14.545 10.6667 14.242 10.6667 13.8481V9.1511C10.6667 8.78747 10.3636 8.48444 9.9697 8.48444Z" fill="#2BAE89"/>
<path d="M9.9697 0.848145C4.90909 0.848145 0.787879 4.93905 0.787879 9.99966C0.787879 15.0603 4.90909 19.1815 9.9697 19.1815C15.0303 19.1815 19.1212 15.0603 19.1212 9.99966C19.1212 4.93905 15.0303 0.848145 9.9697 0.848145ZM9.9697 17.8178C5.66667 17.8178 2.15152 14.3027 2.15152 9.99966C2.15152 5.69663 5.66667 2.18148 9.9697 2.18148C14.2727 2.18148 17.7576 5.69663 17.7576 9.99966C17.7576 14.3027 14.2727 17.8178 9.9697 17.8178Z" fill="#2BAE89"/>
</svg>
