<svg width="174" height="19" viewBox="0 0 174 19" fill="none" xmlns="http://www.w3.org/2000/svg">
<path d="M170.669 14V10.952H173.381V14H170.669Z" fill="#111928"/>
<path d="M164.889 9.8H167.961C166.713 12.752 164.433 14.312 161.409 14.312C157.449 14.312 154.305 11.24 154.305 7.376C154.305 3.488 157.377 0.440002 161.313 0.440002C164.409 0.440002 166.905 2.168 167.961 5.048H164.889C164.121 3.656 162.921 2.936 161.313 2.936C158.841 2.936 157.041 4.808 157.041 7.376C157.041 9.896 158.913 11.816 161.385 11.816C162.873 11.816 163.905 11.216 164.889 9.8Z" fill="#111928"/>
<path d="M140.045 14V0.752014H142.757V10.16L149.381 0.752014H152.141V14H149.429V4.61601L142.805 14H140.045Z" fill="#111928"/>
<path d="M127.107 14V0.752014H132.507C135.555 0.752014 137.355 2.21601 137.355 4.64001C137.355 5.62401 136.683 6.65601 135.723 7.04001C137.091 7.54401 137.883 8.57601 137.883 9.82401C137.883 12.224 135.891 14 133.179 14H127.107ZM129.819 6.08002H132.387C133.899 6.08002 134.763 5.55201 134.763 4.64001C134.763 3.72801 133.923 3.22401 132.387 3.22401H129.819V6.08002ZM129.819 11.528H132.891C134.283 11.528 135.123 10.88 135.123 9.82401C135.123 8.79202 134.307 8.16801 132.891 8.16801H129.819V11.528Z" fill="#111928"/>
<path d="M111.053 18.488V0.752001H113.597V2.552C114.653 1.184 116.261 0.440002 118.229 0.440002C122.093 0.440002 124.949 3.368 124.949 7.352C124.949 11.336 122.069 14.312 118.205 14.312C116.381 14.312 114.989 13.712 113.765 12.416V18.488H111.053ZM117.941 11.816C120.365 11.816 122.213 9.896 122.213 7.424C122.213 4.832 120.365 2.936 117.869 2.936C115.445 2.936 113.597 4.88 113.597 7.424C113.597 9.896 115.493 11.816 117.941 11.816Z" fill="#111928"/>
<path d="M105.661 9.944H108.613C107.749 12.512 105.157 14.312 102.253 14.312C98.2446 14.312 95.1486 11.288 95.1486 7.4C95.1486 3.512 98.1966 0.440002 102.085 0.440002C105.973 0.440002 108.973 3.488 108.973 7.448C108.973 7.88 108.925 8.144 108.853 8.528H98.0286C98.3406 10.472 100.021 11.816 102.181 11.816C103.741 11.816 104.869 11.168 105.661 9.944ZM97.9806 6.104H106.261C105.781 4.112 104.269 2.936 102.109 2.936C99.9966 2.936 98.4846 4.112 97.9806 6.104Z" fill="#111928"/>
<path d="M90.5685 9.8H93.6405C92.3925 12.752 90.1125 14.312 87.0885 14.312C83.1285 14.312 79.9845 11.24 79.9845 7.376C79.9845 3.488 83.0565 0.440002 86.9925 0.440002C90.0885 0.440002 92.5845 2.168 93.6405 5.048H90.5685C89.8005 3.656 88.6005 2.936 86.9925 2.936C84.5205 2.936 82.7205 4.808 82.7205 7.376C82.7205 9.896 84.5925 11.816 87.0645 11.816C88.5525 11.816 89.5845 11.216 90.5685 9.8Z" fill="#111928"/>
<path d="M63.8595 7.424C63.8595 3.392 66.7395 0.440002 70.6755 0.440002C72.7155 0.440002 74.1315 1.136 75.2835 2.72V0.752001H77.8275V14H75.2835V12.08C73.9875 13.664 72.6675 14.312 70.6755 14.312C66.7155 14.312 63.8595 11.408 63.8595 7.424ZM66.5955 7.448C66.5955 9.968 68.4435 11.816 70.9635 11.816C73.4595 11.816 75.2355 9.968 75.2355 7.4C75.2355 4.808 73.3875 2.936 70.8435 2.936C68.4195 2.936 66.5955 4.88 66.5955 7.448Z" fill="#2BAE89"/>
<path d="M48.3808 18.488V0.752001H50.9248V2.552C51.9808 1.184 53.5888 0.440002 55.5568 0.440002C59.4208 0.440002 62.2768 3.368 62.2768 7.352C62.2768 11.336 59.3968 14.312 55.5328 14.312C53.7088 14.312 52.3168 13.712 51.0928 12.416V18.488H48.3808ZM55.2688 11.816C57.6928 11.816 59.5408 9.896 59.5408 7.424C59.5408 4.832 57.6928 2.936 55.1968 2.936C52.7728 2.936 50.9248 4.88 50.9248 7.424C50.9248 9.896 52.8208 11.816 55.2688 11.816Z" fill="#2BAE89"/>
<path d="M40.6988 14V3.22401H37.4828V0.752014H46.6268V3.22401H43.4108V14H40.6988Z" fill="#2BAE89"/>
<path d="M28.9209 11.528H31.7049C33.0249 11.528 33.8169 10.856 33.8169 9.77602C33.8169 8.69602 33.0249 8.02402 31.7049 8.02402H28.9209V11.528ZM26.2089 14V0.752014H28.9209V5.55201H31.9929C34.6329 5.55201 36.5769 7.35202 36.5769 9.77602C36.5769 12.2 34.6329 14 31.9929 14H26.2089Z" fill="#2BAE89"/>
<path d="M11.2729 14L16.8409 0.752014H19.1689L24.7369 14H21.8569L18.0169 4.40001L14.1529 14H11.2729Z" fill="#2BAE89"/>
<path d="M2.568 18.488L4.944 13.016L0 0.752014H3.072L6.432 9.99201L10.056 0.752014H13.128L5.496 18.488H2.568Z" fill="#2BAE89"/>
</svg>
