<svg width="16" height="14" viewBox="0 0 16 14" fill="none" xmlns="http://www.w3.org/2000/svg">
<path d="M5.01067 3.06221L5.0205 3.05828L5.03016 3.05393C5.97103 2.63054 6.97639 2.39797 7.99998 2.39797C10.304 2.39797 12.0362 3.48909 13.2216 4.6328C14.4065 5.77604 15.0136 6.9436 15.0524 7.02092C15.0526 7.02144 15.0533 7.02335 15.0541 7.02675C15.0553 7.03226 15.0562 7.03959 15.0562 7.04797C15.0562 7.05635 15.0553 7.06369 15.0541 7.0692C15.0536 7.07109 15.0532 7.07252 15.0529 7.07351C15.0482 7.08188 15.043 7.09109 15.0374 7.10111C14.8208 7.48563 13.933 9.06198 12.2358 10.2651L12.2013 10.2895L12.1714 10.3194L12.1464 10.3444L12.1214 10.3694L11.7679 10.723L12.1214 11.0765L13.6964 12.6515C13.715 12.6701 13.7187 12.6866 13.7187 12.698C13.7187 12.7094 13.715 12.7259 13.6964 12.7444L13.6768 12.764L13.6708 12.7715C13.6663 12.7722 13.6602 12.7728 13.6527 12.773C13.6509 12.7726 13.646 12.7714 13.6381 12.7678C13.6237 12.7612 13.6109 12.7518 13.6035 12.7444L13.6031 12.744L2.27853 1.44442C2.27849 1.44438 2.27845 1.44434 2.27841 1.4443C2.25996 1.4258 2.25623 1.40935 2.25623 1.39797C2.25623 1.38657 2.25998 1.37008 2.27853 1.35153C2.29708 1.33298 2.31357 1.32922 2.32498 1.32922C2.33638 1.32922 2.35287 1.33298 2.37142 1.35153L4.14642 3.12653L4.45306 3.43316L4.79998 3.17297C4.85264 3.13348 4.90927 3.10277 5.01067 3.06221ZM8.62142 7.57653L9.47498 8.43008V8.42933L9.48918 8.44414L11.2642 10.2941L11.6176 10.6625L11.9785 10.3016C11.977 10.303 11.9846 10.2956 12.0097 10.2773C12.0343 10.2594 12.063 10.2402 12.1023 10.214L12.1094 10.2093L12.1163 10.2043C13.5226 9.19608 14.3894 7.87837 14.7251 7.33615L14.8848 7.0782L14.7297 6.81744C14.4384 6.32741 13.73 5.26442 12.61 4.31902C11.487 3.37112 9.92687 2.52297 7.94998 2.52297C6.94917 2.52297 6.00165 2.74018 5.08708 3.17056L4.43804 3.47599L4.94917 3.97926L6.57417 5.57926L6.82888 5.83004L6.85958 5.81469L7.47142 6.42653L8.62142 7.57653ZM9.47498 7.73099V7.24761C9.47567 7.24407 9.47657 7.2395 9.47777 7.23353L9.47825 7.2311C9.48107 7.21706 9.48597 7.19258 9.48995 7.16736C9.49402 7.14159 9.49998 7.09824 9.49998 7.04797C9.49998 6.22183 8.82612 5.54797 7.99998 5.54797C7.94971 5.54797 7.90635 5.55393 7.88059 5.558C7.85539 5.56198 7.83093 5.56688 7.81688 5.56969L7.81442 5.57018C7.80845 5.57138 7.80388 5.57228 7.80034 5.57297H7.36667C7.40633 5.55757 7.44691 5.54298 7.4904 5.52825L7.57124 5.50804L7.57933 5.50602L7.58734 5.50374C7.71349 5.46769 7.86689 5.44797 7.99998 5.44797C8.89883 5.44797 9.62498 6.17412 9.62498 7.07297C9.62498 7.23579 9.60405 7.39405 9.55843 7.51806C9.54123 7.56116 9.5268 7.59865 9.51397 7.63196C9.49946 7.66965 9.48701 7.70198 9.47498 7.73099ZM7.7884 5.57519C7.78737 5.57535 7.78766 5.57527 7.78913 5.57507L7.7884 5.57519ZM9.47276 7.25955C9.4728 7.25932 9.47284 7.25908 9.47288 7.25882L9.47276 7.25955Z" fill="#6B7280" stroke="#6B7280"/>
<path d="M1.06908 7.04929L1.21901 6.79441C1.4508 6.40036 1.93301 5.68155 2.65209 4.93529L2.5624 4.83981C2.09128 5.33119 1.72039 5.81469 1.45225 6.20361C1.2864 6.44417 1.1608 6.64718 1.07595 6.79153C1.03355 6.86367 1.00141 6.921 0.979612 6.96086C0.959949 6.99681 0.949412 7.01722 0.947491 7.02095C0.947264 7.02156 0.946605 7.02345 0.945882 7.0267C0.944658 7.03221 0.943726 7.03954 0.943726 7.04792C0.943726 7.0563 0.944658 7.06364 0.945882 7.06915L1.06908 7.04929ZM1.06908 7.04929L1.22021 7.30346C1.51158 7.79349 2.21997 8.85648 3.33996 9.80188C4.46291 10.7498 6.02308 11.5979 7.99997 11.5979C8.45908 11.5979 8.9124 11.54 9.34824 11.4477L9.37844 11.5559M1.06908 7.04929L9.37844 11.5559M9.37844 11.5559C8.92238 11.6478 8.45979 11.6979 7.99997 11.6979C5.69595 11.6979 3.9638 10.6068 2.77839 9.4631C1.59347 8.31985 0.986312 7.1523 0.94752 7.07498L9.37844 11.5559Z" fill="#6B7280" stroke="#6B7280"/>
</svg>
