<svg width="32" height="32" viewBox="0 0 32 32" fill="none" xmlns="http://www.w3.org/2000/svg">
<g clip-path="url(#clip0_188_1680)">
<path d="M16 0.900024C7.65 0.900024 0.900002 7.65003 0.900002 16C0.900002 24.35 7.65 31.1 16 31.1C24.35 31.1 31.1 24.35 31.1 16C31.1 7.65003 24.35 0.900024 16 0.900024ZM16 28.9C8.9 28.9 3.1 23.1 3.1 16C3.1 8.90003 8.9 3.10002 16 3.10002C23.1 3.10002 28.9 8.90003 28.9 16C28.9 23.1 23.1 28.9 16 28.9Z" fill="#2BAE89"/>
<path d="M18.75 8.35004H14.85C14.25 8.35004 13.75 8.85004 13.75 9.45004V17.5H10.95C10.35 17.5 9.85001 18 9.85001 18.6C9.85001 19.2 10.35 19.7 10.95 19.7H13.75V22.45C13.75 23.05 14.25 23.55 14.85 23.55C15.45 23.55 15.95 23.05 15.95 22.45V19.7H18.75C19.35 19.7 19.85 19.2 19.85 18.6C19.85 18 19.35 17.5 18.75 17.5H16V15.1H18.75C20.65 15.1 22.15 13.55 22.15 11.7C22.15 9.85004 20.65 8.35004 18.75 8.35004ZM18.75 12.9H16V10.6H18.75C19.4 10.6 19.9 11.1 19.9 11.75C19.9 12.4 19.4 12.9 18.75 12.9Z" fill="#2BAE89"/>
</g>
<defs>
<clipPath id="clip0_188_1680">
<rect width="32" height="32" fill="white"/>
</clipPath>
</defs>
</svg>
