<svg width="32" height="32" viewBox="0 0 32 32" fill="none" xmlns="http://www.w3.org/2000/svg">
<path d="M13.35 22.35H18.75C19.35 22.35 19.85 21.85 19.85 21.25C19.85 20.65 19.35 20.15 18.75 20.15H13.35C12.75 20.15 12.25 20.65 12.25 21.25C12.25 21.85 12.75 22.35 13.35 22.35Z" fill="#2BAE89"/>
<path d="M22.6 24.4H13.35C12.75 24.4 12.25 24.9 12.25 25.5C12.25 26.1 12.75 26.6 13.35 26.6H22.6C23.2 26.6 23.7 26.1 23.7 25.5C23.7 24.9 23.25 24.4 22.6 24.4Z" fill="#2BAE89"/>
<path d="M26.85 0.900024H10.05C8.55 0.900024 7.35 2.10002 7.35 3.60002V21.95H3.15C2.55 21.95 2.05 22.45 2.05 23.05V28C2.05 29.7 3.45 31.1 5.15 31.1H26.85C28.6 31.1 30 29.7 30 27.95V4.00002C30 2.30002 28.55 0.900024 26.85 0.900024ZM5.1 28.9C4.65 28.9 4.25 28.5 4.25 28.05V24.2H7.35V28C7.35 28.45 6.95 28.85 6.5 28.85H5.1V28.9ZM27.75 28C27.75 28.5 27.35 28.9 26.85 28.9H9.5C9.6 28.65 9.6 28.35 9.6 28.05V3.60002C9.6 3.35002 9.8 3.15002 10.05 3.15002H26.8C27.3 3.15002 27.7 3.55002 27.7 4.05002V28H27.75Z" fill="#2BAE89"/>
<path d="M23.4 10.1L20.95 11.25L17.7 9.7C17.4 9.55 17.05 9.55 16.75 9.7L14.5 10.65V7.1C14.5 6.5 14 6 13.4 6C12.8 6 12.3 6.5 12.3 7.1V17.1C12.3 17.7 12.8 18.2 13.4 18.2H23.35C23.95 18.2 24.45 17.7 24.45 17.1C24.45 16.5 23.95 16 23.35 16H14.5V13.15L17.25 11.9L20.5 13.45C20.65 13.55 20.8 13.55 21 13.55C21.15 13.55 21.3 13.5 21.45 13.45L24.35 12.1C24.9 11.85 25.15 11.15 24.9 10.6C24.65 10.05 23.95 9.8 23.4 10.1Z" fill="#2BAE89"/>
</svg>
